<svg role="img" aria-label="AudioBookBay" version="1.1" viewBox="0 0 2048 2048" xmlns="http://www.w3.org/2000/svg"><path d="M0,0 L76,0 L111,2 L154,6 L204,13 L246,21 L284,30 L316,39 L354,51 L392,65 L421,77 L450,90 L485,107 L508,119 L532,133 L548,142 L567,154 L609,182 L627,195 L646,209 L660,220 L677,234 L690,245 L704,257 L719,271 L727,278 L735,286 L743,293 L765,315 L772,323 L782,333 L789,341 L799,352 L808,363 L817,373 L826,384 L837,398 L847,411 L859,427 L872,445 L888,469 L899,486 L915,512 L931,540 L948,572 L962,600 L976,631 L993,673 L1004,703 L1018,746 L1029,785 L1038,824 L1046,866 L1052,905 L1057,951 L1060,1002 L1060,1068 L1057,1115 L1052,1160 L1045,1205 L1036,1247 L1027,1283 L1016,1320 L1005,1353 L996,1377 L997,1382 L1012,1410 L1023,1433 L1034,1461 L1042,1485 L1049,1511 L1055,1542 L1059,1573 L1060,1586 L1060,1634 L1057,1665 L1052,1694 L1046,1719 L1037,1749 L1026,1777 L1012,1806 L1002,1825 L989,1846 L977,1863 L964,1880 L953,1893 L944,1903 L933,1915 L923,1925 L915,1932 L903,1943 L893,1951 L876,1964 L857,1977 L838,1989 L811,2003 L807,2004 L807,1206 L813,1208 L832,1218 L855,1232 L875,1246 L889,1257 L902,1268 L914,1278 L916,1279 L917,1271 L924,1236 L930,1196 L934,1158 L936,1126 L936,1055 L934,1020 L930,981 L923,935 L916,900 L907,862 L897,827 L885,791 L871,754 L855,718 L839,685 L823,655 L807,628 L794,607 L773,576 L760,558 L750,545 L739,531 L728,518 L720,508 L710,497 L703,489 L692,477 L676,460 L667,451 L659,444 L648,433 L640,426 L629,416 L618,407 L601,393 L584,380 L564,365 L541,349 L519,335 L493,319 L468,305 L441,291 L417,279 L385,265 L352,252 L322,241 L283,229 L241,218 L197,209 L160,203 L116,198 L69,195 L9,195 L-40,198 L-84,203 L-127,210 L-164,218 L-200,227 L-230,236 L-266,248 L-300,261 L-330,274 L-358,287 L-380,298 L-403,311 L-421,321 L-447,337 L-478,358 L-492,368 L-511,382 L-527,395 L-537,403 L-550,414 L-560,423 L-568,430 L-581,442 L-597,457 L-608,468 L-615,476 L-623,484 L-630,492 L-640,503 L-649,514 L-661,528 L-674,545 L-688,563 L-701,582 L-713,599 L-728,623 L-737,638 L-749,659 L-762,683 L-777,713 L-792,747 L-804,777 L-818,817 L-833,869 L-842,908 L-849,945 L-855,988 L-859,1033 L-860,1049 L-860,1131 L-857,1172 L-853,1206 L-846,1249 L-840,1277 L-838,1277 L-824,1265 L-810,1253 L-791,1239 L-768,1224 L-744,1210 L-735,1206 L-734,1208 L-734,1966 L-735,2004 L-741,2002 L-767,1988 L-800,1966 L-812,1957 L-822,1949 L-835,1938 L-845,1929 L-860,1915 L-876,1898 L-889,1883 L-902,1866 L-915,1848 L-929,1825 L-939,1807 L-950,1785 L-962,1756 L-972,1726 L-979,1698 L-984,1671 L-987,1645 L-988,1632 L-988,1589 L-985,1557 L-980,1527 L-973,1497 L-962,1462 L-951,1435 L-935,1402 L-923,1381 L-924,1374 L-937,1338 L-950,1298 L-960,1261 L-968,1228 L-976,1186 L-982,1143 L-986,1100 L-988,1064 L-988,1007 L-985,955 L-980,906 L-974,867 L-964,818 L-955,780 L-944,742 L-930,699 L-916,662 L-900,624 L-883,588 L-868,558 L-855,535 L-844,515 L-830,492 L-814,467 L-801,448 L-788,430 L-774,411 L-763,397 L-755,387 L-746,376 L-735,363 L-726,352 L-712,337 L-705,329 L-695,319 L-688,311 L-663,286 L-655,279 L-647,271 L-639,264 L-627,253 L-616,244 L-601,231 L-587,220 L-571,207 L-553,194 L-535,181 L-502,159 L-483,147 L-456,131 L-431,117 L-402,102 L-378,90 L-344,75 L-309,61 L-272,48 L-237,37 L-200,27 L-160,18 L-113,10 L-82,6 L-40,2 Z " fill="#2C746F" transform="translate(988,0)" /><path d="M0,0 L265,0 L266,1 L266,934 L0,934 L-1,927 L-1,3 Z " fill="#A71012" transform="translate(1053,1012)" /><path d="M0,0 L265,0 L266,1 L266,932 L265,934 L0,934 L-1,932 L-1,1 Z " fill="#A71012" transform="translate(730,1012)" /><path d="M0,0 L266,0 L267,1 L267,845 L266,846 L0,846 Z " fill="#A71012" transform="translate(1372,1100)" /><path d="M0,0 L266,0 L266,846 L0,846 L-1,844 L-1,783 Z " fill="#A71012" transform="translate(410,1100)" /><path d="M0,0 L266,0 L266,120 L0,120 L-1,114 L-1,9 Z " fill="#A71012" transform="translate(1053,735)" /><path d="M0,0 L265,0 L266,8 L266,115 L265,120 L0,120 Z " fill="#A81012" transform="translate(730,735)" /><path d="M0,0 L267,0 L267,115 L266,116 L0,116 Z " fill="#A71012" transform="translate(1372,823)" /><path d="M0,0 L266,0 L266,113 L0,114 L-1,112 Z " fill="#A71012" transform="translate(410,823)" /><path d="M0,0 L267,0 L267,103 L0,103 Z " fill="#A71012" transform="translate(1372,970)" /><path d="M0,0 L266,0 L266,103 L0,103 L-1,97 L-1,3 Z " fill="#A71012" transform="translate(1053,882)" /><path d="M0,0 L266,0 L266,103 L0,103 Z " fill="#A81012" transform="translate(410,970)" /><path d="M0,0 L265,0 L266,1 L266,100 L265,103 L-1,103 Z " fill="#A71012" transform="translate(730,882)" /><path d="M0,0 L266,0 L267,1 L267,75 L0,75 Z " fill="#A71012" transform="translate(1372,1973)" /><path d="M0,0 L266,0 L266,75 L-1,75 L-1,6 Z " fill="#A71012" transform="translate(1053,1973)" /><path d="M0,0 L265,0 L266,3 L266,75 L0,75 L-1,1 Z " fill="#A71012" transform="translate(730,1973)" /><path d="M0,0 L266,0 L266,75 L0,75 L-1,1 Z " fill="#A71012" transform="translate(410,1973)" /></svg>
